<svg width="38" height="76" viewBox="0 0 38 76" fill="none" xmlns="http://www.w3.org/2000/svg">
<g filter="url(#filter0_d_2_52)">
<path d="M5 62H33V68H5V62Z" fill="#262626"/>
</g>
<g filter="url(#filter1_d_2_52)">
<rect x="4" y="57" width="30" height="6" rx="2" fill="#262626"/>
</g>
<g filter="url(#filter2_d_2_52)">
<rect x="10" y="26" width="18" height="4" rx="2" fill="#262626"/>
</g>
<g filter="url(#filter3_d_2_52)">
<rect x="17" y="11" width="11" height="4" rx="1" transform="rotate(-90 17 11)" fill="#262626"/>
</g>
<g filter="url(#filter4_d_2_52)">
<rect x="14" y="3" width="10" height="4" rx="1" fill="#262626"/>
</g>
<g filter="url(#filter5_d_2_52)">
<rect x="10" y="30" width="18" height="4" rx="2" fill="#262626"/>
</g>
<path d="M11.8894 18.7496C11.1294 17.227 11.0709 15.4488 11.7292 13.8796V13.8796C12.2524 12.6323 13.1922 11.6052 14.3882 10.9734L14.7201 10.798C15.7122 10.2739 16.8172 10 17.9393 10H20.0607C21.1828 10 22.2878 10.2739 23.2799 10.798L23.6118 10.9734C24.8078 11.6052 25.7476 12.6323 26.2708 13.8796V13.8796C26.9291 15.4488 26.8706 17.227 26.1106 18.7496L25.2805 20.4128C24.7346 21.5065 24.3961 22.6919 24.282 23.909L23.9654 27.2889C23.5694 31.5156 24.1377 35.7771 25.6274 39.7524L27.1574 43.8351C27.5354 44.8438 28.0552 45.7934 28.7013 46.6554L29.0859 47.1685C29.6319 47.897 30.0713 48.6997 30.3908 49.5522V49.5522C30.7936 50.6273 31 51.766 31 52.914V53.1026C31 53.7587 30.9392 54.4135 30.8183 55.0585L30.4545 57H7.54545L7.18167 55.0585C7.06082 54.4135 7 53.7587 7 53.1026V52.914C7 51.766 7.20636 50.6273 7.60922 49.5522V49.5522C7.92872 48.6997 8.36811 47.897 8.91414 47.1685L9.2987 46.6554C9.94475 45.7934 10.4646 44.8438 10.8426 43.8351L12.3726 39.7524C13.8623 35.7771 14.4306 31.5156 14.0346 27.2889L13.718 23.909C13.6039 22.6919 13.2654 21.5065 12.7195 20.4128L11.8894 18.7496Z" fill="#262626"/>
<defs>
<filter id="filter0_d_2_52" x="1" y="62" width="36" height="14" filterUnits="userSpaceOnUse" color-interpolation-filters="sRGB">
<feFlood flood-opacity="0" result="BackgroundImageFix"/>
<feColorMatrix in="SourceAlpha" type="matrix" values="0 0 0 0 0 0 0 0 0 0 0 0 0 0 0 0 0 0 127 0" result="hardAlpha"/>
<feOffset dy="4"/>
<feGaussianBlur stdDeviation="2"/>
<feComposite in2="hardAlpha" operator="out"/>
<feColorMatrix type="matrix" values="0 0 0 0 0 0 0 0 0 0 0 0 0 0 0 0 0 0 0.25 0"/>
<feBlend mode="normal" in2="BackgroundImageFix" result="effect1_dropShadow_2_52"/>
<feBlend mode="normal" in="SourceGraphic" in2="effect1_dropShadow_2_52" result="shape"/>
</filter>
<filter id="filter1_d_2_52" x="0" y="57" width="38" height="14" filterUnits="userSpaceOnUse" color-interpolation-filters="sRGB">
<feFlood flood-opacity="0" result="BackgroundImageFix"/>
<feColorMatrix in="SourceAlpha" type="matrix" values="0 0 0 0 0 0 0 0 0 0 0 0 0 0 0 0 0 0 127 0" result="hardAlpha"/>
<feOffset dy="4"/>
<feGaussianBlur stdDeviation="2"/>
<feComposite in2="hardAlpha" operator="out"/>
<feColorMatrix type="matrix" values="0 0 0 0 0 0 0 0 0 0 0 0 0 0 0 0 0 0 0.25 0"/>
<feBlend mode="normal" in2="BackgroundImageFix" result="effect1_dropShadow_2_52"/>
<feBlend mode="normal" in="SourceGraphic" in2="effect1_dropShadow_2_52" result="shape"/>
</filter>
<filter id="filter2_d_2_52" x="6" y="26" width="26" height="12" filterUnits="userSpaceOnUse" color-interpolation-filters="sRGB">
<feFlood flood-opacity="0" result="BackgroundImageFix"/>
<feColorMatrix in="SourceAlpha" type="matrix" values="0 0 0 0 0 0 0 0 0 0 0 0 0 0 0 0 0 0 127 0" result="hardAlpha"/>
<feOffset dy="4"/>
<feGaussianBlur stdDeviation="2"/>
<feComposite in2="hardAlpha" operator="out"/>
<feColorMatrix type="matrix" values="0 0 0 0 0 0 0 0 0 0 0 0 0 0 0 0 0 0 0.25 0"/>
<feBlend mode="normal" in2="BackgroundImageFix" result="effect1_dropShadow_2_52"/>
<feBlend mode="normal" in="SourceGraphic" in2="effect1_dropShadow_2_52" result="shape"/>
</filter>
<filter id="filter3_d_2_52" x="13" y="0" width="12" height="19" filterUnits="userSpaceOnUse" color-interpolation-filters="sRGB">
<feFlood flood-opacity="0" result="BackgroundImageFix"/>
<feColorMatrix in="SourceAlpha" type="matrix" values="0 0 0 0 0 0 0 0 0 0 0 0 0 0 0 0 0 0 127 0" result="hardAlpha"/>
<feOffset dy="4"/>
<feGaussianBlur stdDeviation="2"/>
<feComposite in2="hardAlpha" operator="out"/>
<feColorMatrix type="matrix" values="0 0 0 0 0 0 0 0 0 0 0 0 0 0 0 0 0 0 0.25 0"/>
<feBlend mode="normal" in2="BackgroundImageFix" result="effect1_dropShadow_2_52"/>
<feBlend mode="normal" in="SourceGraphic" in2="effect1_dropShadow_2_52" result="shape"/>
</filter>
<filter id="filter4_d_2_52" x="10" y="3" width="18" height="12" filterUnits="userSpaceOnUse" color-interpolation-filters="sRGB">
<feFlood flood-opacity="0" result="BackgroundImageFix"/>
<feColorMatrix in="SourceAlpha" type="matrix" values="0 0 0 0 0 0 0 0 0 0 0 0 0 0 0 0 0 0 127 0" result="hardAlpha"/>
<feOffset dy="4"/>
<feGaussianBlur stdDeviation="2"/>
<feComposite in2="hardAlpha" operator="out"/>
<feColorMatrix type="matrix" values="0 0 0 0 0 0 0 0 0 0 0 0 0 0 0 0 0 0 0.25 0"/>
<feBlend mode="normal" in2="BackgroundImageFix" result="effect1_dropShadow_2_52"/>
<feBlend mode="normal" in="SourceGraphic" in2="effect1_dropShadow_2_52" result="shape"/>
</filter>
<filter id="filter5_d_2_52" x="6" y="30" width="26" height="12" filterUnits="userSpaceOnUse" color-interpolation-filters="sRGB">
<feFlood flood-opacity="0" result="BackgroundImageFix"/>
<feColorMatrix in="SourceAlpha" type="matrix" values="0 0 0 0 0 0 0 0 0 0 0 0 0 0 0 0 0 0 127 0" result="hardAlpha"/>
<feOffset dy="4"/>
<feGaussianBlur stdDeviation="2"/>
<feComposite in2="hardAlpha" operator="out"/>
<feColorMatrix type="matrix" values="0 0 0 0 0 0 0 0 0 0 0 0 0 0 0 0 0 0 0.25 0"/>
<feBlend mode="normal" in2="BackgroundImageFix" result="effect1_dropShadow_2_52"/>
<feBlend mode="normal" in="SourceGraphic" in2="effect1_dropShadow_2_52" result="shape"/>
</filter>
</defs>
</svg>
